<svg xmlns="http://www.w3.org/2000/svg" width="85.677" height="78.033" viewBox="0 0 85.677 78.033">
  <g id="Union_3" data-name="Union 3" transform="translate(-10.355 -10.355)" fill="#fcd2cb" stroke-linecap="round">
    <path d="M 53.35546112060547 82.73137664794922 L 53.19390869140625 82.56983947753906 L 53.03250885009766 82.73123931884766 L 20.5062313079834 50.20497512817383 C 16.5398006439209 46.23855972290039 14.35540008544922 40.96494293212891 14.35540008544922 35.35560607910156 C 14.35540008544922 29.74626731872559 16.5398006439209 24.47265243530273 20.5062313079834 20.5062370300293 C 24.47264671325684 16.5398063659668 29.74626159667969 14.35540580749512 35.35559844970703 14.35540580749512 C 40.96493911743164 14.35540580749512 46.23855209350586 16.5398063659668 50.2049674987793 20.5062370300293 L 50.36561584472656 20.66688346862793 L 53.19390869140625 23.49517440795898 L 56.0223388671875 20.66702079772949 L 56.18299865722656 20.50637435913086 C 60.14955520629883 16.5398063659668 65.42327880859375 14.35540580749512 71.03284454345703 14.35540580749512 C 76.64234161376953 14.35540580749512 81.915771484375 16.53976058959961 85.88175201416016 20.5060977935791 C 89.84830474853516 24.47265243530273 92.03270721435547 29.74626731872559 92.03270721435547 35.35560607910156 C 92.03270721435547 40.96494293212891 89.84830474853516 46.23855972290039 85.88187408447266 50.20497512817383 L 53.35546112060547 82.73137664794922 Z" stroke="none"/>
    <path d="M 53.35524749755859 77.07474517822266 L 83.05344390869141 47.37654495239258 C 89.68182373046875 40.74818420410156 89.68182373046875 29.9630241394043 83.05318450927734 23.33438491821289 C 79.84274291992188 20.12364387512207 75.57382965087891 18.35540390014648 71.03284454345703 18.35540390014648 C 66.49172973632812 18.35540390014648 62.22248458862305 20.12374496459961 58.85054779052734 23.49564361572266 L 53.03304672241211 28.99116516113281 L 47.37654495239258 23.33466339111328 C 44.16562652587891 20.12374496459961 39.89650726318359 18.35540390014648 35.35560607910156 18.35540390014648 C 30.81470680236816 18.35540390014648 26.54558563232422 20.12374496459961 23.33466529846191 23.33466339111328 C 16.70628547668457 29.9630241394043 16.70628547668457 40.74818420410156 23.33466529846191 47.37654495239258 L 53.03250503540039 77.07438659667969 L 53.19368743896484 76.9132080078125 L 53.35524749755859 77.07474517822266 M 53.35560607910156 88.38810729980469 L 53.19404602050781 88.2265625 L 53.03250503540039 88.38810729980469 L 17.67780685424805 53.03340530395508 C 7.914606094360352 43.27020263671875 7.914606094360352 27.44100379943848 17.67780685424805 17.67780494689941 C 27.44100952148438 7.914603710174561 43.27021026611328 7.914607048034668 53.03340530395508 17.67780494689941 L 53.19404602050781 17.83844375610352 L 53.35470581054688 17.67780494689941 C 63.11789703369141 7.914610862731934 78.947998046875 7.914597511291504 88.71030426025391 17.67780494689941 C 98.47350311279297 27.44100379943848 98.47350311279297 43.27020263671875 88.71030426025391 53.03340530395508 L 53.35560607910156 88.38810729980469 Z" stroke="none" fill="#e85b40"/>
  </g>
</svg>
